<?xml version="1.0" standalone="no"?>
<!DOCTYPE svg PUBLIC "-//W3C//DTD SVG 20010904//EN"
 "http://www.w3.org/TR/2001/REC-SVG-20010904/DTD/svg10.dtd">
<svg version="1.0" xmlns="http://www.w3.org/2000/svg"
 width="280.000000pt" height="280.000000pt" viewBox="0 0 280.000000 280.000000"
 preserveAspectRatio="xMidYMid meet">

<g transform="translate(0.000000,280.000000) scale(0.100000,-0.100000)"
fill="#000000" stroke="none">
<path d="M1536 2339 l-118 -120 23 -26 c86 -94 351 -353 362 -353 18 0 250
236 246 249 -8 22 -364 371 -379 371 -8 0 -68 -54 -134 -121z"/>
<path d="M1218 2021 c-65 -65 -118 -122 -118 -127 0 -5 216 -225 479 -488
l479 -479 126 123 c69 68 126 129 126 135 0 16 -943 955 -960 955 -8 0 -68
-53 -132 -119z"/>
<path d="M898 1702 c-65 -66 -118 -124 -118 -131 0 -10 284 -299 359 -365 l22
-20 124 124 c69 69 125 128 125 131 0 12 -370 379 -382 379 -6 0 -65 -53 -130
-118z"/>
<path d="M577 1382 c-64 -66 -117 -125 -117 -133 0 -15 939 -959 954 -959 16
0 246 234 246 250 0 16 -940 960 -956 960 -5 0 -62 -53 -127 -118z"/>
<path d="M1477 1122 c-64 -66 -117 -124 -117 -131 0 -12 364 -381 376 -381 9
0 234 222 245 241 7 13 -29 55 -176 203 -102 102 -190 186 -197 186 -8 0 -66
-53 -131 -118z"/>
</g>
</svg>
