<?xml version="1.0" standalone="no"?>
<!DOCTYPE svg PUBLIC "-//W3C//DTD SVG 20010904//EN"
 "http://www.w3.org/TR/2001/REC-SVG-20010904/DTD/svg10.dtd">
<svg version="1.0" xmlns="http://www.w3.org/2000/svg"
 width="341.000000pt" height="148.000000pt" viewBox="0 0 341.000000 148.000000"
 preserveAspectRatio="xMidYMid meet">

<g transform="translate(0.000000,148.000000) scale(0.100000,-0.100000)"
fill="#000000" stroke="none">
<path d="M957 1039 c-25 -15 -47 -70 -40 -100 7 -29 42 -69 60 -69 8 0 13 -11
13 -28 0 -22 -7 -32 -35 -45 -73 -35 -87 -144 -26 -199 17 -15 38 -28 46 -28
10 0 15 -10 15 -28 0 -21 -7 -32 -26 -40 -30 -14 -54 -67 -47 -104 8 -41 48
-73 93 -73 97 0 133 126 50 173 -22 12 -30 24 -30 45 0 16 5 27 14 27 7 0 25
9 39 20 36 28 67 10 67 -38 0 -48 46 -92 95 -92 27 0 44 8 67 30 27 27 30 36
25 71 -3 22 -13 49 -23 60 -25 28 -82 36 -117 16 -44 -26 -67 -9 -67 51 0 37
5 50 20 60 17 10 25 10 43 -3 58 -41 147 6 147 79 0 49 -34 86 -87 93 -37 5
-45 2 -73 -25 -22 -22 -30 -40 -30 -66 0 -51 -26 -62 -79 -33 -32 17 -41 28
-41 50 0 16 5 27 13 27 8 0 24 12 38 26 35 37 33 98 -4 130 -30 26 -87 32
-120 13z m95 -64 c9 -21 8 -28 -7 -45 -24 -27 -51 -25 -70 4 -23 34 -5 66 36
66 22 0 32 -6 41 -25z m226 -117 c7 -7 12 -21 12 -33 0 -12 -5 -26 -12 -33 -7
-7 -21 -12 -33 -12 -40 0 -61 50 -33 78 7 7 21 12 33 12 12 0 26 -5 33 -12z
m-215 -130 c9 -11 17 -29 17 -40 0 -23 -43 -68 -65 -68 -69 0 -96 93 -36 125
31 17 59 11 84 -17z m215 -140 c28 -28 7 -78 -33 -78 -27 0 -45 18 -45 45 0
27 18 45 45 45 12 0 26 -5 33 -12z m-226 -153 c9 -21 8 -28 -7 -45 -10 -11
-26 -20 -35 -20 -9 0 -25 9 -35 20 -27 30 -7 70 35 70 23 0 33 -6 42 -25z"/>
<path d="M2000 831 c-17 -4 -28 -17 -35 -39 -5 -18 -15 -32 -22 -32 -7 0 -13
-9 -13 -20 0 -11 7 -20 15 -20 12 0 15 -16 15 -85 0 -84 0 -85 25 -85 25 0 25
1 25 85 0 69 3 85 15 85 8 0 15 9 15 20 0 11 -7 20 -15 20 -8 0 -15 7 -15 15
0 9 7 18 15 21 8 4 15 15 15 25 0 20 -2 21 -40 10z"/>
<path d="M1480 690 l0 -140 24 0 c23 0 25 4 28 52 l3 52 35 -52 c28 -41 41
-52 63 -52 l28 0 -40 56 -41 57 41 48 c40 48 40 49 16 49 -17 0 -39 -15 -66
-42 l-41 -43 0 78 c0 75 0 77 -25 77 l-25 0 0 -140z"/>
<path d="M2080 690 l0 -140 24 0 c22 0 23 3 18 50 -2 28 -2 50 1 50 3 0 22
-22 42 -50 26 -36 43 -50 61 -50 13 0 24 2 24 5 0 2 -18 28 -40 57 l-40 53 40
40 c46 47 49 55 17 55 -13 0 -37 -15 -57 -35 -18 -19 -37 -32 -42 -29 -4 3 -8
34 -8 70 0 57 -2 64 -20 64 -19 0 -20 -7 -20 -140z"/>
<path d="M1717 740 c-59 -47 -56 -143 7 -181 38 -23 74 -24 104 -3 12 8 22 10
22 5 0 -6 11 -11 25 -11 l25 0 0 105 c0 104 0 105 -24 105 -13 0 -26 -6 -29
-12 -4 -10 -7 -10 -18 0 -20 19 -83 15 -112 -8z m111 -36 c27 -18 30 -69 5
-96 -23 -26 -78 -24 -97 4 -22 31 -20 64 6 88 26 24 56 26 86 4z"/>
<path d="M2299 729 c-39 -42 -40 -104 -3 -148 32 -38 84 -50 119 -27 28 18 39
21 30 6 -4 -6 5 -10 19 -10 l26 0 0 105 c0 97 -1 105 -19 105 -11 0 -21 -5
-23 -11 -3 -9 -9 -9 -25 0 -42 22 -92 14 -124 -20z m130 -35 c12 -15 21 -35
21 -45 0 -31 -36 -59 -75 -59 -28 0 -37 5 -50 29 -37 73 54 138 104 75z"/>
</g>
</svg>
