<?xml version="1.0" standalone="no"?>
<!DOCTYPE svg PUBLIC "-//W3C//DTD SVG 20010904//EN"
 "http://www.w3.org/TR/2001/REC-SVG-20010904/DTD/svg10.dtd">
<svg version="1.0" xmlns="http://www.w3.org/2000/svg"
 width="790.000000pt" height="197.000000pt" viewBox="0 0 790.000000 197.000000"
 preserveAspectRatio="xMidYMid meet">

<g transform="translate(0.000000,197.000000) scale(0.100000,-0.100000)"
fill="#000000" stroke="none">
<path d="M2885 1933 c-44 -19 -95 -29 -186 -39 -187 -20 -265 -57 -371 -173
-29 -32 -89 -119 -133 -193 -153 -257 -206 -326 -301 -394 -101 -72 -234 -128
-567 -239 -173 -58 -336 -114 -362 -125 -99 -43 -231 -155 -310 -265 -66 -92
-116 -136 -161 -142 -22 -2 -95 5 -164 16 -153 26 -213 26 -265 2 -45 -20 -77
-52 -59 -58 7 -2 44 -28 82 -57 39 -30 77 -56 83 -58 8 -3 -7 -32 -39 -78 -53
-75 -65 -116 -36 -127 9 -3 51 -1 95 5 101 15 284 97 465 209 133 83 196 114
274 133 62 16 243 14 380 -5 63 -9 169 -18 235 -22 113 -5 122 -4 148 17 31
25 56 70 81 147 9 28 23 57 31 63 31 26 -11 -172 -59 -274 -38 -82 -103 -184
-149 -233 -28 -30 -29 -33 -10 -33 100 0 261 71 354 157 75 70 128 146 186
269 24 52 47 94 50 94 3 0 2 -31 -2 -70 -4 -42 -3 -70 2 -70 23 0 121 80 164
133 103 128 174 317 258 689 27 119 56 229 65 245 19 37 96 109 176 165 84 59
114 92 140 151 27 60 32 163 10 177 -22 14 -39 12 -105 -17z"/>
<path d="M5295 1285 c-48 -47 -22 -115 44 -115 52 0 75 19 75 65 0 69 -71 99
-119 50z"/>
<path d="M3031 1253 c-5 -21 -44 -173 -86 -338 -42 -165 -79 -308 -81 -317 -5
-16 3 -18 64 -18 l70 0 57 238 c32 130 60 243 64 250 4 7 55 -96 118 -235
l111 -248 63 -3 64 -2 109 246 c61 135 113 247 116 249 4 2 33 -108 65 -246
l59 -249 68 0 c48 0 68 4 68 13 0 6 -40 165 -88 352 l-89 340 -63 0 -63 0
-120 -267 c-66 -147 -123 -265 -127 -263 -3 2 -60 123 -125 269 l-119 266 -63
0 -62 0 -10 -37z"/>
<path d="M6360 935 l0 -357 233 4 c226 3 233 4 288 29 76 36 133 90 166 157
25 52 28 67 28 167 0 100 -2 115 -28 167 -34 70 -100 130 -176 160 -51 20 -76
23 -283 26 l-228 4 0 -357z m465 267 c108 -50 159 -135 159 -267 0 -98 -27
-167 -86 -221 -68 -61 -94 -68 -285 -72 l-173 -4 0 289 c0 159 3 293 7 297 5
4 80 6 168 4 141 -3 166 -6 210 -26z"/>
<path d="M7220 935 l0 -356 268 3 c254 3 269 4 309 25 23 13 51 37 64 54 24
35 35 107 25 164 -9 46 -57 101 -103 116 l-35 11 39 18 c57 25 78 62 78 140 0
78 -23 118 -88 153 -40 21 -56 22 -299 25 l-258 3 0 -356z m507 269 c66 -49
62 -158 -7 -198 -31 -19 -55 -21 -222 -24 l-188 -4 0 127 0 126 194 -3 c179
-3 197 -5 223 -24z m3 -309 c98 -57 88 -196 -17 -241 -24 -10 -83 -14 -218
-14 l-185 0 0 141 0 141 193 -4 c171 -3 196 -5 227 -23z"/>
<path d="M4181 1099 c-126 -39 -195 -164 -169 -309 15 -88 58 -146 137 -187
55 -29 72 -33 139 -33 84 0 143 20 181 61 l21 23 0 -37 0 -37 70 0 70 0 0 260
0 260 -70 0 -70 0 0 -37 0 -36 -22 20 c-45 41 -91 56 -173 59 -44 2 -95 -1
-114 -7z m246 -115 c85 -55 95 -200 19 -271 -107 -100 -280 -37 -294 105 -12
128 81 213 207 190 25 -4 55 -15 68 -24z"/>
<path d="M5034 1091 c-22 -10 -55 -36 -72 -57 l-32 -39 0 53 0 52 -65 0 -65 0
0 -260 0 -260 65 0 65 0 0 133 c0 72 5 149 10 169 23 83 107 137 193 124 l44
-7 12 47 c10 38 10 49 -1 55 -23 15 -112 9 -154 -10z"/>
<path d="M5708 1101 c-87 -28 -160 -103 -174 -178 -10 -55 1 -165 20 -206 26
-53 71 -96 131 -123 94 -44 242 -27 304 35 l21 21 0 -35 0 -35 70 0 70 0 0
260 0 260 -70 0 -70 0 0 -37 0 -36 -22 20 c-45 41 -91 56 -173 59 -44 2 -92 0
-107 -5z m242 -119 c43 -31 72 -99 67 -160 -11 -144 -180 -209 -292 -111 -104
91 -54 275 82 298 47 9 110 -4 143 -27z"/>
<path d="M5282 859 l3 -241 28 -24 c23 -19 39 -24 85 -24 78 0 86 7 75 61 -7
34 -14 44 -33 49 l-25 6 -3 207 -2 207 -66 0 -65 0 3 -241z"/>
</g>
</svg>
