<?xml version="1.0" standalone="no"?>
<!DOCTYPE svg PUBLIC "-//W3C//DTD SVG 20010904//EN"
 "http://www.w3.org/TR/2001/REC-SVG-20010904/DTD/svg10.dtd">
<svg version="1.0" xmlns="http://www.w3.org/2000/svg"
 width="360.000000pt" height="360.000000pt" viewBox="0 0 360.000000 360.000000"
 preserveAspectRatio="xMidYMid meet">

<g transform="translate(0.000000,360.000000) scale(0.100000,-0.100000)"
fill="#000000" stroke="none">
<path d="M1708 3052 c-43 -20 -78 -39 -78 -42 0 -3 38 -22 85 -44 l85 -39 85
39 c47 21 85 41 85 44 0 7 -162 80 -175 79 -5 0 -45 -17 -87 -37z"/>
<path d="M1590 2852 l0 -107 90 -42 90 -41 0 107 0 107 -85 42 c-47 23 -87 42
-90 42 -3 0 -5 -48 -5 -108z"/>
<path d="M1913 2917 l-83 -41 0 -108 0 -107 73 35 c39 20 80 38 90 41 15 5 17
19 17 114 0 60 -3 109 -7 108 -5 0 -45 -19 -90 -42z"/>
<path d="M990 2756 l-85 -33 -32 -89 c-18 -48 -31 -90 -29 -91 1 -2 43 12 92
30 l88 33 28 74 c39 104 40 110 31 109 -4 0 -46 -15 -93 -33z"/>
<path d="M2515 2772 c3 -9 18 -51 33 -92 l28 -75 89 -32 c49 -18 90 -31 92
-30 1 2 -12 42 -30 91 l-32 89 -70 27 c-103 39 -117 42 -110 22z"/>
<path d="M1111 2678 l-31 -92 72 -73 c40 -40 75 -73 78 -73 3 0 20 42 37 93
l33 92 -72 72 c-40 40 -76 73 -79 73 -4 0 -21 -42 -38 -92z"/>
<path d="M2372 2697 l-72 -72 33 -92 c17 -51 34 -93 37 -93 3 0 38 33 78 73
l73 73 -32 92 c-18 51 -35 92 -38 92 -4 0 -39 -33 -79 -73z"/>
<path d="M942 2517 l-92 -32 77 -77 78 -78 90 32 c50 17 92 33 94 34 4 4 -142
154 -149 153 -3 0 -47 -15 -98 -32z"/>
<path d="M2481 2474 c-40 -41 -72 -76 -70 -78 2 -1 44 -17 94 -34 l90 -32 78
78 77 77 -81 27 c-44 15 -88 29 -97 32 -12 4 -41 -18 -91 -70z"/>
<path d="M1687 2085 c-59 -29 -111 -55 -114 -58 -3 -4 47 -31 111 -61 l116
-55 115 54 c63 30 115 56 115 59 0 4 -230 117 -234 115 0 0 -50 -24 -109 -54z"/>
<path d="M670 2035 c0 -3 19 -43 42 -90 l42 -85 108 0 108 0 -45 90 -45 90
-105 0 c-58 0 -105 -2 -105 -5z"/>
<path d="M2675 1950 l-45 -90 108 0 108 0 42 85 c23 47 42 87 42 90 0 3 -47 5
-105 5 l-105 0 -45 -90z"/>
<path d="M577 1919 c-20 -45 -37 -85 -37 -91 0 -14 72 -168 79 -168 3 0 23 38
45 85 l39 85 -39 85 c-22 47 -42 85 -45 85 -3 0 -22 -37 -42 -81z"/>
<path d="M2936 1915 l-39 -85 39 -85 c22 -47 42 -85 45 -85 7 0 79 154 79 168
0 14 -73 172 -79 172 -3 0 -23 -38 -45 -85z"/>
<path d="M1510 1830 c0 -71 2 -130 5 -130 4 0 19 7 36 15 28 15 30 15 39 -11
11 -29 6 -44 -16 -44 -33 0 -8 -19 84 -63 l97 -47 3 95 c2 76 -1 99 -13 111
-19 20 -19 43 0 50 8 4 15 14 15 23 0 12 -36 35 -117 74 -65 32 -121 57 -125
57 -5 0 -8 -58 -8 -130z m198 -75 c11 -23 9 -26 -30 -46 -40 -20 -42 -21 -55
-3 -20 28 -16 38 25 56 49 21 47 22 60 -7z"/>
<path d="M1957 1903 c-81 -39 -117 -62 -117 -74 0 -9 7 -19 15 -23 8 -3 15
-12 15 -20 0 -8 -7 -21 -15 -30 -11 -11 -15 -39 -15 -110 0 -53 2 -96 5 -96 3
0 48 21 100 47 92 46 95 48 74 63 -18 14 -19 19 -8 43 11 25 13 25 40 12 15
-8 30 -15 34 -15 3 0 5 59 5 130 0 72 -4 130 -8 130 -5 0 -61 -26 -125 -57z
m-4 -143 c40 -15 45 -26 24 -54 -13 -18 -15 -17 -55 3 -39 20 -41 23 -30 46 6
14 14 24 17 23 3 -2 23 -10 44 -18z"/>
<path d="M712 1715 c-23 -47 -42 -87 -42 -90 0 -3 49 -5 108 -5 l108 0 11 28
c6 15 25 55 42 90 l30 62 -107 0 -108 0 -42 -85z"/>
<path d="M2661 1738 c17 -35 36 -75 42 -90 l11 -28 108 0 c59 0 108 2 108 5 0
3 -19 43 -42 90 l-42 85 -108 0 -107 0 30 -62z"/>
<path d="M930 1255 c-40 -41 -71 -77 -69 -80 3 -3 46 -19 95 -35 l89 -30 72
72 c40 40 73 75 73 78 0 3 -37 18 -82 34 -46 15 -88 29 -93 32 -6 2 -44 -30
-85 -71z"/>
<path d="M2500 1297 c-47 -17 -87 -32 -89 -33 -2 -2 29 -38 70 -79 l74 -75 89
30 c49 16 92 32 95 35 5 6 -140 156 -149 154 -3 -1 -43 -15 -90 -32z"/>
<path d="M1152 1146 l-73 -73 33 -97 34 -96 77 78 77 77 -33 92 c-17 51 -34
93 -37 93 -3 0 -38 -34 -78 -74z"/>
<path d="M2333 1127 l-33 -92 78 -78 c43 -43 78 -72 80 -65 2 7 18 51 34 97
l30 84 -75 73 c-42 41 -78 74 -79 74 -2 0 -18 -42 -35 -93z"/>
<path d="M843 1107 c3 -6 18 -48 33 -92 l27 -81 76 -26 c42 -15 84 -30 93 -33
15 -6 13 7 -15 86 l-32 94 -93 32 c-56 20 -92 28 -89 20z"/>
<path d="M2671 1089 c-47 -16 -88 -32 -93 -37 -8 -8 -68 -175 -64 -179 1 -1
43 12 92 29 l90 32 31 91 c17 49 31 91 30 91 -1 1 -40 -12 -86 -27z"/>
<path d="M1678 954 l-88 -44 0 -105 c0 -58 2 -105 5 -105 3 0 43 19 90 42 l85
42 0 108 c0 60 -1 108 -2 107 -2 0 -42 -20 -90 -45z"/>
<path d="M1830 892 l0 -109 86 -42 c47 -22 87 -41 90 -41 2 0 4 47 4 105 l0
105 -90 45 -90 45 0 -108z"/>
<path d="M1708 692 c-43 -21 -78 -40 -78 -43 0 -6 158 -79 173 -79 14 0 167
73 167 80 0 7 -162 80 -175 79 -5 0 -45 -17 -87 -37z"/>
</g>
</svg>
